<svg width="60" height="60" viewBox="0 0 60 60" fill="none" xmlns="http://www.w3.org/2000/svg">
<g clip-path="url(#clip0_304_4)">
<path d="M39.375 31.875C39.375 34.3614 38.3873 36.746 36.6291 38.5041C34.871 40.2623 32.4864 41.25 30 41.25C27.5136 41.25 25.129 40.2623 23.3709 38.5041C21.6127 36.746 20.625 34.3614 20.625 31.875C20.625 29.3886 21.6127 27.004 23.3709 25.2459C25.129 23.4877 27.5136 22.5 30 22.5C32.4864 22.5 34.871 23.4877 36.6291 25.2459C38.3873 27.004 39.375 29.3886 39.375 31.875V31.875Z" fill="black"/>
<path d="M7.5 15C5.51088 15 3.60322 15.7902 2.1967 17.1967C0.790176 18.6032 0 20.5109 0 22.5L0 45C0 46.9891 0.790176 48.8968 2.1967 50.3033C3.60322 51.7098 5.51088 52.5 7.5 52.5H52.5C54.4891 52.5 56.3968 51.7098 57.8033 50.3033C59.2098 48.8968 60 46.9891 60 45V22.5C60 20.5109 59.2098 18.6032 57.8033 17.1967C56.3968 15.7902 54.4891 15 52.5 15H48.105C46.116 14.9996 44.2087 14.2091 42.8025 12.8025L39.6975 9.6975C38.2913 8.29088 36.384 7.50042 34.395 7.5H25.605C23.616 7.50042 21.7087 8.29088 20.3025 9.6975L17.1975 12.8025C15.7913 14.2091 13.884 14.9996 11.895 15H7.5ZM9.375 22.5C8.87772 22.5 8.40081 22.3025 8.04918 21.9508C7.69754 21.5992 7.5 21.1223 7.5 20.625C7.5 20.1277 7.69754 19.6508 8.04918 19.2992C8.40081 18.9475 8.87772 18.75 9.375 18.75C9.87228 18.75 10.3492 18.9475 10.7008 19.2992C11.0525 19.6508 11.25 20.1277 11.25 20.625C11.25 21.1223 11.0525 21.5992 10.7008 21.9508C10.3492 22.3025 9.87228 22.5 9.375 22.5ZM43.125 31.875C43.125 35.356 41.7422 38.6944 39.2808 41.1558C36.8194 43.6172 33.481 45 30 45C26.519 45 23.1806 43.6172 20.7192 41.1558C18.2578 38.6944 16.875 35.356 16.875 31.875C16.875 28.394 18.2578 25.0556 20.7192 22.5942C23.1806 20.1328 26.519 18.75 30 18.75C33.481 18.75 36.8194 20.1328 39.2808 22.5942C41.7422 25.0556 43.125 28.394 43.125 31.875V31.875Z" fill="black"/>
</g>
<defs>
<clipPath id="clip0_304_4">
<rect width="60" height="60" fill="white"/>
</clipPath>
</defs>
</svg>
