<svg width="60" height="60" viewBox="0 0 60 60" fill="none" xmlns="http://www.w3.org/2000/svg">
<path d="M49.9976 10H9.99756C7.24006 10 4.99756 12.2425 4.99756 15V45C4.99756 47.7575 7.24006 50 9.99756 50H49.9976C52.7551 50 54.9976 47.7575 54.9976 45V15C54.9976 12.2425 52.7551 10 49.9976 10ZM16.2476 17.5C17.2421 17.5 18.1959 17.8951 18.8992 18.5983C19.6025 19.3016 19.9976 20.2554 19.9976 21.25C19.9976 22.2446 19.6025 23.1984 18.8992 23.9017C18.1959 24.6049 17.2421 25 16.2476 25C15.253 25 14.2992 24.6049 13.5959 23.9017C12.8926 23.1984 12.4976 22.2446 12.4976 21.25C12.4976 20.2554 12.8926 19.3016 13.5959 18.5983C14.2992 17.8951 15.253 17.5 16.2476 17.5V17.5ZM29.9976 42.5H12.4976L22.4976 30L26.2476 35L33.7476 25L47.4976 42.5H29.9976Z" fill="black"/>
</svg>
